<?xml version="1.0" encoding="utf-8"?>
<!-- Generator: Adobe Illustrator 18.0.0, SVG Export Plug-In . SVG Version: 6.00 Build 0)  -->
<!DOCTYPE svg PUBLIC "-//W3C//DTD SVG 1.1//EN" "http://www.w3.org/Graphics/SVG/1.1/DTD/svg11.dtd">
<svg version="1.1" xmlns="http://www.w3.org/2000/svg" xmlns:xlink="http://www.w3.org/1999/xlink" x="0px" y="0px"
	 viewBox="0 0 512 512" enable-background="new 0 0 512 512" xml:space="preserve">
<g id="Layer_3">
	<rect fill="none" width="512" height="512"/>
</g>
<g id="Layer_4" display="none">
	<linearGradient id="SVGID_1_" gradientUnits="userSpaceOnUse" x1="256" y1="512" x2="256" y2="3.650614e-06">
		<stop  offset="0" style="stop-color:#FF483A"/>
		<stop  offset="1" style="stop-color:#FF9500"/>
	</linearGradient>
	<rect display="inline" fill="url(#SVGID_1_)" stroke="#000000" stroke-miterlimit="10" width="512" height="512"/>
</g>
<g id="Camera">
	<g>
		<path fill="#FFFFFF" d="M502,291.8c-39.7,71.8-72.8,101.6-139.8,87.4l-44.4,110.1l-57.6-43l36.4-91.2
			c-19.8-9.4-38.3-20.3-59.5-30.7c-25,45.8-61.4,88.8-129,88.8c-62.8,0-100.1-40.6-100.1-88.3c0-49.6,37.3-98.3,110.5-98.3
			c26.9,0,53.4,6.6,78.4,16.5l53.9-134.6c-45.4-2.8-77-18.4-111.5-18.4C99,90.1,90,110.9,90,125c0,18.4,14.2,25.5,28.8,25.5
			c20.8,0,34.5-13.7,34.5-13.7l30.2,45.4c0,0-25.5,26-67.6,26c-44.4,0-86.9-28.8-86.9-83.1c0-43.9,28.3-95,104.9-95
			c53.9,0,103.5,25,151.2,19.8c16.5-16.5,39.2-29.3,66.6-29.3l13.7,40.6c0,0-24.6,10.9-38.3,43.9l-67.6,168.2
			c18.4,10.4,38.7,21.3,57.2,31.7l98.7-243.8h75.6L382,330.1c28.3,1.9,52.4,6.1,94-57.2C485.9,273.8,498.7,282.8,502,291.8z
			 M174.1,296.5c-18.9-6.6-37.8-11.3-54.3-11.3c-34,0-48.2,19.4-48.2,36.8s16.5,29.8,37.8,29.8C128.8,351.8,154.3,339,174.1,296.5z"
			/>
	</g>
</g>
<g id="Smiley">
</g>
</svg>
